<svg width="512" height="58" viewBox="0 0 512 58" fill="none" xmlns="http://www.w3.org/2000/svg">
<path d="M339.98 19.8125H334.344L333.359 23H328.965L335.223 5.9375H339.09L345.395 23H340.977L339.98 19.8125ZM335.328 16.6367H338.996L337.156 10.7188L335.328 16.6367ZM351.722 19.8359H358.882V23H347.608V5.9375H351.722V19.8359ZM371.502 19.8125H365.865L364.881 23H360.486L366.744 5.9375H370.611L376.916 23H372.498L371.502 19.8125ZM366.85 16.6367H370.518L368.678 10.7188L366.85 16.6367ZM385.47 16.9766H383.243V23H379.13V5.9375H385.845C387.868 5.9375 389.45 6.38672 390.591 7.28516C391.732 8.18359 392.302 9.45312 392.302 11.0938C392.302 12.2812 392.06 13.2656 391.575 14.0469C391.099 14.8281 390.349 15.4609 389.325 15.9453L392.888 22.8242V23H388.482L385.47 16.9766ZM383.243 13.8008H385.845C386.626 13.8008 387.212 13.5977 387.603 13.1914C388.001 12.7773 388.2 12.2031 388.2 11.4688C388.2 10.7344 388.001 10.1602 387.603 9.74609C387.204 9.32422 386.618 9.11328 385.845 9.11328H383.243V13.8008ZM401.149 5.9375L404.957 17.8086L408.754 5.9375H414.168V23H410.043V19.0156L410.442 10.8594L406.317 23H403.598L399.461 10.8477L399.86 19.0156V23H395.746V5.9375H401.149ZM339.98 47.8125H334.344L333.359 51H328.965L335.223 33.9375H339.09L345.395 51H340.977L339.98 47.8125ZM335.328 44.6367H338.996L337.156 38.7188L335.328 44.6367ZM360.78 33.9375V45.1055C360.78 46.3711 360.511 47.4688 359.972 48.3984C359.433 49.3203 358.659 50.0234 357.651 50.5078C356.644 50.9922 355.452 51.2344 354.077 51.2344C351.999 51.2344 350.362 50.6953 349.167 49.6172C347.972 48.5391 347.362 47.0625 347.339 45.1875V33.9375H351.476V45.2695C351.522 47.1367 352.39 48.0703 354.077 48.0703C354.929 48.0703 355.573 47.8359 356.011 47.3672C356.448 46.8984 356.667 46.1367 356.667 45.082V33.9375H360.78ZM377.713 37.1133H372.592V51H368.479V37.1133H363.451V33.9375H377.713V37.1133ZM394.54 42.8203C394.54 44.4844 394.232 45.957 393.614 47.2383C392.997 48.5195 392.118 49.5078 390.978 50.2031C389.845 50.8906 388.552 51.2344 387.099 51.2344C385.646 51.2344 384.357 50.9023 383.232 50.2383C382.107 49.5664 381.228 48.6094 380.595 47.3672C379.97 46.125 379.642 44.6992 379.61 43.0898V42.1289C379.61 40.457 379.915 38.9844 380.525 37.7109C381.142 36.4297 382.021 35.4414 383.161 34.7461C384.31 34.0508 385.614 33.7031 387.075 33.7031C388.521 33.7031 389.81 34.0469 390.943 34.7344C392.075 35.4219 392.954 36.4023 393.579 37.6758C394.212 38.9414 394.532 40.3945 394.54 42.0352V42.8203ZM390.357 42.1055C390.357 40.4102 390.071 39.125 389.501 38.25C388.939 37.3672 388.13 36.9258 387.075 36.9258C385.013 36.9258 383.923 38.4727 383.806 41.5664L383.794 42.8203C383.794 44.4922 384.071 45.7773 384.626 46.6758C385.181 47.5742 386.005 48.0234 387.099 48.0234C388.138 48.0234 388.939 47.582 389.501 46.6992C390.064 45.8164 390.349 44.5469 390.357 42.8906V42.1055ZM403.024 33.9375L406.832 45.8086L410.629 33.9375H416.043V51H411.918V47.0156L412.317 38.8594L408.192 51H405.473L401.336 38.8477L401.735 47.0156V51H397.621V33.9375H403.024ZM429.53 47.8125H423.894L422.909 51H418.515L424.773 33.9375H428.64L434.945 51H430.527L429.53 47.8125ZM424.878 44.6367H428.546L426.706 38.7188L424.878 44.6367ZM449.147 37.1133H444.026V51H439.912V37.1133H434.885V33.9375H449.147V37.1133ZM456.236 51H452.134V33.9375H456.236V51ZM474.504 42.8203C474.504 44.4844 474.196 45.957 473.578 47.2383C472.961 48.5195 472.082 49.5078 470.942 50.2031C469.809 50.8906 468.516 51.2344 467.063 51.2344C465.61 51.2344 464.321 50.9023 463.196 50.2383C462.071 49.5664 461.192 48.6094 460.559 47.3672C459.934 46.125 459.606 44.6992 459.575 43.0898V42.1289C459.575 40.457 459.879 38.9844 460.489 37.7109C461.106 36.4297 461.985 35.4414 463.125 34.7461C464.274 34.0508 465.578 33.7031 467.039 33.7031C468.485 33.7031 469.774 34.0469 470.907 34.7344C472.039 35.4219 472.918 36.4023 473.543 37.6758C474.176 38.9414 474.496 40.3945 474.504 42.0352V42.8203ZM470.321 42.1055C470.321 40.4102 470.035 39.125 469.465 38.25C468.903 37.3672 468.094 36.9258 467.039 36.9258C464.977 36.9258 463.887 38.4727 463.77 41.5664L463.758 42.8203C463.758 44.4922 464.035 45.7773 464.59 46.6758C465.145 47.5742 465.969 48.0234 467.063 48.0234C468.102 48.0234 468.903 47.582 469.465 46.6992C470.028 45.8164 470.313 44.5469 470.321 42.8906V42.1055ZM491.835 51H487.745L481.699 40.3828V51H477.585V33.9375H481.699L487.734 44.5547V33.9375H491.835V51ZM504.198 46.4648C504.198 45.8633 503.983 45.3945 503.553 45.0586C503.131 44.7227 502.385 44.375 501.315 44.0156C500.245 43.6562 499.37 43.3086 498.69 42.9727C496.479 41.8867 495.373 40.3945 495.373 38.4961C495.373 37.5508 495.647 36.7188 496.194 36C496.748 35.2734 497.53 34.7109 498.538 34.3125C499.545 33.9062 500.678 33.7031 501.936 33.7031C503.163 33.7031 504.26 33.9219 505.229 34.3594C506.205 34.7969 506.963 35.4219 507.502 36.2344C508.041 37.0391 508.311 37.9609 508.311 39H504.209C504.209 38.3047 503.995 37.7656 503.565 37.3828C503.143 37 502.569 36.8086 501.842 36.8086C501.108 36.8086 500.526 36.9727 500.096 37.3008C499.674 37.6211 499.463 38.0312 499.463 38.5312C499.463 38.9688 499.698 39.3672 500.166 39.7266C500.635 40.0781 501.459 40.4453 502.639 40.8281C503.819 41.2031 504.788 41.6094 505.545 42.0469C507.389 43.1094 508.311 44.5742 508.311 46.4414C508.311 47.9336 507.748 49.1055 506.623 49.957C505.498 50.8086 503.955 51.2344 501.995 51.2344C500.612 51.2344 499.358 50.9883 498.233 50.4961C497.116 49.9961 496.272 49.3164 495.702 48.457C495.139 47.5898 494.858 46.5938 494.858 45.4688H498.983C498.983 46.3828 499.217 47.0586 499.686 47.4961C500.163 47.9258 500.932 48.1406 501.995 48.1406C502.674 48.1406 503.209 47.9961 503.6 47.707C503.998 47.4102 504.198 46.9961 504.198 46.4648Z" fill="white"/>
<path d="M324.12 0.0800781H321.12V57.0801H324.12V0.0800781Z" fill="white"/>
<path fill-rule="evenodd" clip-rule="evenodd" d="M268.26 9.30977L277.89 39.4798L288.01 9.30977H300V47.9298H292.18V18.8998L282.05 47.9298H273.59L264.05 18.8998V47.9298H256.23V9.30977H268.26ZM231.49 15.5598C229.8 15.5598 228.29 15.7998 227.04 16.3098C225.77 16.7798 224.76 17.4998 223.96 18.4498C223.12 19.4898 222.48 20.8698 222.05 22.5398C221.63 24.2098 221.42 26.2198 221.42 28.5298C221.42 31.5198 221.76 34.0098 222.48 35.9498C223.19 37.8898 224.28 39.3398 225.79 40.2698C227.28 41.1998 229.19 41.6798 231.49 41.6798C233.8 41.6798 235.65 41.2298 237.14 40.2998C238.6 39.3698 239.71 37.9398 240.4 35.9998C241.12 34.0898 241.46 31.6298 241.46 28.6298C241.46 25.6398 241.12 23.1698 240.4 21.2098C239.68 19.2698 238.6 17.8398 237.14 16.9098C235.65 15.9898 233.8 15.5098 231.49 15.5398V15.5598ZM231.44 9.00977C235.84 9.00977 239.42 9.75977 242.26 11.2198C245.07 12.6698 247.16 14.8998 248.49 17.8998C249.84 20.8898 250.5 24.6298 250.5 29.1598C250.5 32.2098 250.13 34.8898 249.36 37.2198C248.62 39.5598 247.48 41.5198 245.97 43.1298C244.38 44.7998 242.42 46.0798 240.11 46.8998C237.78 47.7498 235.1 48.1698 232.02 48.1698C227.65 48.1698 223.99 47.4298 221.07 45.9198C218.16 44.4298 215.98 42.2598 214.55 39.3698C213.09 36.4798 212.38 32.9798 212.38 28.8198C212.38 24.3398 213.04 20.6498 214.39 17.7098C215.74 14.7898 217.81 12.5898 220.62 11.1598C223.43 9.72977 227.04 9.00977 231.44 9.00977ZM208.61 41.0398V47.9298H195.17C190.93 47.9298 187.51 47.2698 184.86 45.9198C182.21 44.5698 180.27 42.4698 179.05 39.6298C177.81 36.7998 177.22 33.1698 177.22 28.7098C177.22 25.5598 177.57 22.7698 178.28 20.3898C178.97 17.9998 180.03 16.0098 181.47 14.4198C182.98 12.7298 184.91 11.4298 187.25 10.5798C189.58 9.72977 192.36 9.30977 195.54 9.30977H208.64V16.1998H196.52C194.75 16.1998 193.26 16.4098 191.99 16.8098C190.72 17.2098 189.71 17.8198 188.94 18.5798C187.19 20.3898 186.34 23.5198 186.34 27.9698C186.34 30.3798 186.53 32.4198 186.93 34.0898C187.33 35.7898 187.88 37.1198 188.68 38.0998C190.24 40.0598 192.97 41.0398 196.84 41.0398H208.67H208.61ZM163.2 47.9298V9.30977H171.42V47.9298H163.2ZM159.14 9.30977L142.23 47.9298H134.01L117.73 9.30977H127.01L138.36 38.3898L149.89 9.30977H159.17H159.14ZM105.46 47.9298V9.30977H113.68V47.9298H105.46ZM74.1804 9.30977H82.3904V30.9698C82.3904 33.0898 82.5004 34.7798 82.7104 36.1098C82.9204 37.4098 83.2404 38.3398 83.6704 38.8398C84.2804 39.5598 85.3404 40.1098 86.8504 40.4798C88.3604 40.8498 90.3204 41.0398 92.7604 41.0398H100.63V47.9298H92.7604C89.0704 47.9298 86.0004 47.6098 83.5104 46.9798C81.0204 46.3398 79.1104 45.4098 77.8104 44.1698C75.3704 41.7798 74.1504 37.3798 74.1504 30.9698V9.30977H74.1804Z" fill="white"/>
<path fill-rule="evenodd" clip-rule="evenodd" d="M37.8299 23.8896V37.8296H24.4899C21.6799 37.8296 19.3799 35.0996 19.3799 32.2896V19.3496H32.8999C35.7099 19.3496 37.8499 21.0796 37.8499 23.8896H37.8299Z" fill="white"/>
<path fill-rule="evenodd" clip-rule="evenodd" d="M14.95 34.33C14.95 38.52 18.24 43.11 22.43 43.11H42.23V21.85C42.23 17.66 39.13 14.98 34.94 14.98H14.98V34.36L14.95 34.33ZM0 12.73C0 5.7 5.7 0 12.72 0H44.43C51.46 0 57.16 5.7 57.16 12.73V44.43C57.16 51.46 51.46 57.16 44.43 57.16H12.72C5.7 57.16 0 51.46 0 44.43V12.73Z" fill="white"/>
<path fill-rule="evenodd" clip-rule="evenodd" d="M37.8299 23.8896V37.8296H24.4899C21.6799 37.8296 19.3799 35.0996 19.3799 32.2896V19.3496H32.8999C35.7099 19.3496 37.8499 21.0796 37.8499 23.8896H37.8299Z" fill="white"/>
<path fill-rule="evenodd" clip-rule="evenodd" d="M14.95 34.33C14.95 38.52 18.24 43.11 22.43 43.11H42.23V21.85C42.23 17.66 39.13 14.98 34.94 14.98H14.98V34.36L14.95 34.33ZM0 12.73C0 5.7 5.7 0 12.72 0H44.43C51.46 0 57.16 5.7 57.16 12.73V44.43C57.16 51.46 51.46 57.16 44.43 57.16H12.72C5.7 57.16 0 51.46 0 44.43V12.73Z" fill="white"/>
</svg>
