<svg width="512" height="132" viewBox="0 0 512 132" fill="none" xmlns="http://www.w3.org/2000/svg">
<path d="M339.98 19.8125H334.344L333.359 23H328.965L335.223 5.9375H339.09L345.395 23H340.977L339.98 19.8125ZM335.328 16.6367H338.996L337.156 10.7188L335.328 16.6367ZM351.722 19.8359H358.882V23H347.608V5.9375H351.722V19.8359ZM371.502 19.8125H365.865L364.881 23H360.486L366.744 5.9375H370.611L376.916 23H372.498L371.502 19.8125ZM366.85 16.6367H370.518L368.678 10.7188L366.85 16.6367ZM385.47 16.9766H383.243V23H379.13V5.9375H385.845C387.868 5.9375 389.45 6.38672 390.591 7.28516C391.732 8.18359 392.302 9.45312 392.302 11.0938C392.302 12.2812 392.06 13.2656 391.575 14.0469C391.099 14.8281 390.349 15.4609 389.325 15.9453L392.888 22.8242V23H388.482L385.47 16.9766ZM383.243 13.8008H385.845C386.626 13.8008 387.212 13.5977 387.603 13.1914C388.001 12.7773 388.2 12.2031 388.2 11.4688C388.2 10.7344 388.001 10.1602 387.603 9.74609C387.204 9.32422 386.618 9.11328 385.845 9.11328H383.243V13.8008ZM401.149 5.9375L404.957 17.8086L408.754 5.9375H414.168V23H410.043V19.0156L410.442 10.8594L406.317 23H403.598L399.461 10.8477L399.86 19.0156V23H395.746V5.9375H401.149ZM339.98 47.8125H334.344L333.359 51H328.965L335.223 33.9375H339.09L345.395 51H340.977L339.98 47.8125ZM335.328 44.6367H338.996L337.156 38.7188L335.328 44.6367ZM360.78 33.9375V45.1055C360.78 46.3711 360.511 47.4688 359.972 48.3984C359.433 49.3203 358.659 50.0234 357.651 50.5078C356.644 50.9922 355.452 51.2344 354.077 51.2344C351.999 51.2344 350.362 50.6953 349.167 49.6172C347.972 48.5391 347.362 47.0625 347.339 45.1875V33.9375H351.476V45.2695C351.522 47.1367 352.39 48.0703 354.077 48.0703C354.929 48.0703 355.573 47.8359 356.011 47.3672C356.448 46.8984 356.667 46.1367 356.667 45.082V33.9375H360.78ZM377.713 37.1133H372.592V51H368.479V37.1133H363.451V33.9375H377.713V37.1133ZM394.54 42.8203C394.54 44.4844 394.232 45.957 393.614 47.2383C392.997 48.5195 392.118 49.5078 390.978 50.2031C389.845 50.8906 388.552 51.2344 387.099 51.2344C385.646 51.2344 384.357 50.9023 383.232 50.2383C382.107 49.5664 381.228 48.6094 380.595 47.3672C379.97 46.125 379.642 44.6992 379.61 43.0898V42.1289C379.61 40.457 379.915 38.9844 380.525 37.7109C381.142 36.4297 382.021 35.4414 383.161 34.7461C384.31 34.0508 385.614 33.7031 387.075 33.7031C388.521 33.7031 389.81 34.0469 390.943 34.7344C392.075 35.4219 392.954 36.4023 393.579 37.6758C394.212 38.9414 394.532 40.3945 394.54 42.0352V42.8203ZM390.357 42.1055C390.357 40.4102 390.071 39.125 389.501 38.25C388.939 37.3672 388.13 36.9258 387.075 36.9258C385.013 36.9258 383.923 38.4727 383.806 41.5664L383.794 42.8203C383.794 44.4922 384.071 45.7773 384.626 46.6758C385.181 47.5742 386.005 48.0234 387.099 48.0234C388.138 48.0234 388.939 47.582 389.501 46.6992C390.064 45.8164 390.349 44.5469 390.357 42.8906V42.1055ZM403.024 33.9375L406.832 45.8086L410.629 33.9375H416.043V51H411.918V47.0156L412.317 38.8594L408.192 51H405.473L401.336 38.8477L401.735 47.0156V51H397.621V33.9375H403.024ZM429.53 47.8125H423.894L422.909 51H418.515L424.773 33.9375H428.64L434.945 51H430.527L429.53 47.8125ZM424.878 44.6367H428.546L426.706 38.7188L424.878 44.6367ZM449.147 37.1133H444.026V51H439.912V37.1133H434.885V33.9375H449.147V37.1133ZM456.236 51H452.134V33.9375H456.236V51ZM474.504 42.8203C474.504 44.4844 474.196 45.957 473.578 47.2383C472.961 48.5195 472.082 49.5078 470.942 50.2031C469.809 50.8906 468.516 51.2344 467.063 51.2344C465.61 51.2344 464.321 50.9023 463.196 50.2383C462.071 49.5664 461.192 48.6094 460.559 47.3672C459.934 46.125 459.606 44.6992 459.575 43.0898V42.1289C459.575 40.457 459.879 38.9844 460.489 37.7109C461.106 36.4297 461.985 35.4414 463.125 34.7461C464.274 34.0508 465.578 33.7031 467.039 33.7031C468.485 33.7031 469.774 34.0469 470.907 34.7344C472.039 35.4219 472.918 36.4023 473.543 37.6758C474.176 38.9414 474.496 40.3945 474.504 42.0352V42.8203ZM470.321 42.1055C470.321 40.4102 470.035 39.125 469.465 38.25C468.903 37.3672 468.094 36.9258 467.039 36.9258C464.977 36.9258 463.887 38.4727 463.77 41.5664L463.758 42.8203C463.758 44.4922 464.035 45.7773 464.59 46.6758C465.145 47.5742 465.969 48.0234 467.063 48.0234C468.102 48.0234 468.903 47.582 469.465 46.6992C470.028 45.8164 470.313 44.5469 470.321 42.8906V42.1055ZM491.835 51H487.745L481.699 40.3828V51H477.585V33.9375H481.699L487.734 44.5547V33.9375H491.835V51ZM504.198 46.4648C504.198 45.8633 503.983 45.3945 503.553 45.0586C503.131 44.7227 502.385 44.375 501.315 44.0156C500.245 43.6562 499.37 43.3086 498.69 42.9727C496.479 41.8867 495.373 40.3945 495.373 38.4961C495.373 37.5508 495.647 36.7188 496.194 36C496.748 35.2734 497.53 34.7109 498.538 34.3125C499.545 33.9062 500.678 33.7031 501.936 33.7031C503.163 33.7031 504.26 33.9219 505.229 34.3594C506.205 34.7969 506.963 35.4219 507.502 36.2344C508.041 37.0391 508.311 37.9609 508.311 39H504.209C504.209 38.3047 503.995 37.7656 503.565 37.3828C503.143 37 502.569 36.8086 501.842 36.8086C501.108 36.8086 500.526 36.9727 500.096 37.3008C499.674 37.6211 499.463 38.0312 499.463 38.5312C499.463 38.9688 499.698 39.3672 500.166 39.7266C500.635 40.0781 501.459 40.4453 502.639 40.8281C503.819 41.2031 504.788 41.6094 505.545 42.0469C507.389 43.1094 508.311 44.5742 508.311 46.4414C508.311 47.9336 507.748 49.1055 506.623 49.957C505.498 50.8086 503.955 51.2344 501.995 51.2344C500.612 51.2344 499.358 50.9883 498.233 50.4961C497.116 49.9961 496.272 49.3164 495.702 48.457C495.139 47.5898 494.858 46.5938 494.858 45.4688H498.983C498.983 46.3828 499.217 47.0586 499.686 47.4961C500.163 47.9258 500.932 48.1406 501.995 48.1406C502.674 48.1406 503.209 47.9961 503.6 47.707C503.998 47.4102 504.198 46.9961 504.198 46.4648Z" fill="white"/>
<path d="M324.12 0.0800781H321.12V57.0801H324.12V0.0800781Z" fill="white"/>
<path fill-rule="evenodd" clip-rule="evenodd" d="M268.26 9.30977L277.89 39.4798L288.01 9.30977H300V47.9298H292.18V18.8998L282.05 47.9298H273.59L264.05 18.8998V47.9298H256.23V9.30977H268.26ZM231.49 15.5598C229.8 15.5598 228.29 15.7998 227.04 16.3098C225.77 16.7798 224.76 17.4998 223.96 18.4498C223.12 19.4898 222.48 20.8698 222.05 22.5398C221.63 24.2098 221.42 26.2198 221.42 28.5298C221.42 31.5198 221.76 34.0098 222.48 35.9498C223.19 37.8898 224.28 39.3398 225.79 40.2698C227.28 41.1998 229.19 41.6798 231.49 41.6798C233.8 41.6798 235.65 41.2298 237.14 40.2998C238.6 39.3698 239.71 37.9398 240.4 35.9998C241.12 34.0898 241.46 31.6298 241.46 28.6298C241.46 25.6398 241.12 23.1698 240.4 21.2098C239.68 19.2698 238.6 17.8398 237.14 16.9098C235.65 15.9898 233.8 15.5098 231.49 15.5398V15.5598ZM231.44 9.00977C235.84 9.00977 239.42 9.75977 242.26 11.2198C245.07 12.6698 247.16 14.8998 248.49 17.8998C249.84 20.8898 250.5 24.6298 250.5 29.1598C250.5 32.2098 250.13 34.8898 249.36 37.2198C248.62 39.5598 247.48 41.5198 245.97 43.1298C244.38 44.7998 242.42 46.0798 240.11 46.8998C237.78 47.7498 235.1 48.1698 232.02 48.1698C227.65 48.1698 223.99 47.4298 221.07 45.9198C218.16 44.4298 215.98 42.2598 214.55 39.3698C213.09 36.4798 212.38 32.9798 212.38 28.8198C212.38 24.3398 213.04 20.6498 214.39 17.7098C215.74 14.7898 217.81 12.5898 220.62 11.1598C223.43 9.72977 227.04 9.00977 231.44 9.00977ZM208.61 41.0398V47.9298H195.17C190.93 47.9298 187.51 47.2698 184.86 45.9198C182.21 44.5698 180.27 42.4698 179.05 39.6298C177.81 36.7998 177.22 33.1698 177.22 28.7098C177.22 25.5598 177.57 22.7698 178.28 20.3898C178.97 17.9998 180.03 16.0098 181.47 14.4198C182.98 12.7298 184.91 11.4298 187.25 10.5798C189.58 9.72977 192.36 9.30977 195.54 9.30977H208.64V16.1998H196.52C194.75 16.1998 193.26 16.4098 191.99 16.8098C190.72 17.2098 189.71 17.8198 188.94 18.5798C187.19 20.3898 186.34 23.5198 186.34 27.9698C186.34 30.3798 186.53 32.4198 186.93 34.0898C187.33 35.7898 187.88 37.1198 188.68 38.0998C190.24 40.0598 192.97 41.0398 196.84 41.0398H208.67H208.61ZM163.2 47.9298V9.30977H171.42V47.9298H163.2ZM159.14 9.30977L142.23 47.9298H134.01L117.73 9.30977H127.01L138.36 38.3898L149.89 9.30977H159.17H159.14ZM105.46 47.9298V9.30977H113.68V47.9298H105.46ZM74.1804 9.30977H82.3904V30.9698C82.3904 33.0898 82.5004 34.7798 82.7104 36.1098C82.9204 37.4098 83.2404 38.3398 83.6704 38.8398C84.2804 39.5598 85.3404 40.1098 86.8504 40.4798C88.3604 40.8498 90.3204 41.0398 92.7604 41.0398H100.63V47.9298H92.7604C89.0704 47.9298 86.0004 47.6098 83.5104 46.9798C81.0204 46.3398 79.1104 45.4098 77.8104 44.1698C75.3704 41.7798 74.1504 37.3798 74.1504 30.9698V9.30977H74.1804Z" fill="white"/>
<path fill-rule="evenodd" clip-rule="evenodd" d="M37.8299 23.8896V37.8296H24.4899C21.6799 37.8296 19.3799 35.0996 19.3799 32.2896V19.3496H32.8999C35.7099 19.3496 37.8499 21.0796 37.8499 23.8896H37.8299Z" fill="white"/>
<path fill-rule="evenodd" clip-rule="evenodd" d="M14.95 34.33C14.95 38.52 18.24 43.11 22.43 43.11H42.23V21.85C42.23 17.66 39.13 14.98 34.94 14.98H14.98V34.36L14.95 34.33ZM0 12.73C0 5.7 5.7 0 12.72 0H44.43C51.46 0 57.16 5.7 57.16 12.73V44.43C57.16 51.46 51.46 57.16 44.43 57.16H12.72C5.7 57.16 0 51.46 0 44.43V12.73Z" fill="white"/>
<path fill-rule="evenodd" clip-rule="evenodd" d="M37.8299 23.8896V37.8296H24.4899C21.6799 37.8296 19.3799 35.0996 19.3799 32.2896V19.3496H32.8999C35.7099 19.3496 37.8499 21.0796 37.8499 23.8896H37.8299Z" fill="white"/>
<path fill-rule="evenodd" clip-rule="evenodd" d="M14.95 34.33C14.95 38.52 18.24 43.11 22.43 43.11H42.23V21.85C42.23 17.66 39.13 14.98 34.94 14.98H14.98V34.36L14.95 34.33ZM0 12.73C0 5.7 5.7 0 12.72 0H44.43C51.46 0 57.16 5.7 57.16 12.73V44.43C57.16 51.46 51.46 57.16 44.43 57.16H12.72C5.7 57.16 0 51.46 0 44.43V12.73Z" fill="white"/>
<path d="M4.88672 98.9375L10.4648 112.859L16.043 98.9375H18.9609V116H16.7109V109.355L16.9219 102.184L11.3203 116H9.59766L4.00781 102.219L4.23047 109.355V116H1.98047V98.9375H4.88672ZM26.6677 116H24.4177V98.9375H26.6677V116ZM32.1127 116V98.9375H36.9291C38.4134 98.9375 39.7259 99.2656 40.8666 99.9219C42.0072 100.578 42.8861 101.512 43.5033 102.723C44.1283 103.934 44.4447 105.324 44.4525 106.895V107.984C44.4525 109.594 44.14 111.004 43.515 112.215C42.8978 113.426 42.0111 114.355 40.8548 115.004C39.7064 115.652 38.3666 115.984 36.8353 116H32.1127ZM34.3627 100.789V114.16H36.7298C38.4642 114.16 39.8119 113.621 40.7728 112.543C41.7416 111.465 42.2259 109.93 42.2259 107.938V106.941C42.2259 105.004 41.7689 103.5 40.8548 102.43C39.9486 101.352 38.6595 100.805 36.9877 100.789H34.3627ZM49.1827 116V98.9375H53.9991C55.4834 98.9375 56.7959 99.2656 57.9366 99.9219C59.0772 100.578 59.9561 101.512 60.5733 102.723C61.1983 103.934 61.5147 105.324 61.5225 106.895V107.984C61.5225 109.594 61.21 111.004 60.585 112.215C59.9678 113.426 59.0811 114.355 57.9248 115.004C56.7764 115.652 55.4366 115.984 53.9053 116H49.1827ZM51.4327 100.789V114.16H53.7998C55.5342 114.16 56.8819 113.621 57.8428 112.543C58.8116 111.465 59.2959 109.93 59.2959 107.938V106.941C59.2959 105.004 58.8389 103.5 57.9248 102.43C57.0186 101.352 55.7295 100.805 54.0577 100.789H51.4327ZM68.5144 114.16H76.6003V116H66.2527V98.9375H68.5144V114.16ZM90.1312 108.113H82.7367V114.16H91.3266V116H80.4867V98.9375H91.2094V100.789H82.7367V106.273H90.1312V108.113ZM112.365 108.113H104.97V114.16H113.56V116H102.72V98.9375H113.443V100.789H104.97V106.273H112.365V108.113ZM127.103 111.547H119.955L118.349 116H116.029L122.544 98.9375H124.513L131.04 116H128.732L127.103 111.547ZM120.634 109.695H126.435L123.529 101.715L120.634 109.695ZM139.685 108.395C137.755 107.84 136.349 107.16 135.466 106.355C134.591 105.543 134.153 104.543 134.153 103.355C134.153 102.012 134.689 100.902 135.759 100.027C136.837 99.1445 138.235 98.7031 139.954 98.7031C141.126 98.7031 142.169 98.9297 143.083 99.3828C144.005 99.8359 144.716 100.461 145.216 101.258C145.724 102.055 145.978 102.926 145.978 103.871H143.716C143.716 102.84 143.388 102.031 142.732 101.445C142.075 100.852 141.15 100.555 139.954 100.555C138.845 100.555 137.978 100.801 137.353 101.293C136.735 101.777 136.427 102.453 136.427 103.32C136.427 104.016 136.72 104.605 137.306 105.09C137.9 105.566 138.903 106.004 140.318 106.402C141.739 106.801 142.849 107.242 143.646 107.727C144.45 108.203 145.044 108.762 145.427 109.402C145.818 110.043 146.013 110.797 146.013 111.664C146.013 113.047 145.474 114.156 144.396 114.992C143.318 115.82 141.876 116.234 140.071 116.234C138.9 116.234 137.806 116.012 136.79 115.566C135.775 115.113 134.989 114.496 134.435 113.715C133.888 112.934 133.614 112.047 133.614 111.055H135.876C135.876 112.086 136.255 112.902 137.013 113.504C137.778 114.098 138.798 114.395 140.071 114.395C141.259 114.395 142.169 114.152 142.802 113.668C143.435 113.184 143.751 112.523 143.751 111.688C143.751 110.852 143.458 110.207 142.872 109.754C142.286 109.293 141.224 108.84 139.685 108.395ZM162.016 100.789H156.532V116H154.294V100.789H148.821V98.9375H162.016V100.789ZM178.93 109.098H174.922V116H172.66V98.9375H178.309C180.231 98.9375 181.707 99.375 182.738 100.25C183.777 101.125 184.297 102.398 184.297 104.07C184.297 105.133 184.008 106.059 183.43 106.848C182.86 107.637 182.063 108.227 181.039 108.617L185.047 115.859V116H182.633L178.93 109.098ZM174.922 107.258H178.379C179.496 107.258 180.383 106.969 181.039 106.391C181.703 105.812 182.035 105.039 182.035 104.07C182.035 103.016 181.719 102.207 181.086 101.645C180.461 101.082 179.555 100.797 178.367 100.789H174.922V107.258ZM198.426 108.113H191.031V114.16H199.621V116H188.781V98.9375H199.504V100.789H191.031V106.273H198.426V108.113ZM216.339 113.762C215.761 114.59 214.953 115.211 213.914 115.625C212.882 116.031 211.679 116.234 210.304 116.234C208.914 116.234 207.679 115.91 206.601 115.262C205.523 114.605 204.687 113.676 204.093 112.473C203.507 111.27 203.207 109.875 203.191 108.289V106.801C203.191 104.23 203.789 102.238 204.984 100.824C206.187 99.4102 207.875 98.7031 210.046 98.7031C211.828 98.7031 213.261 99.1602 214.347 100.074C215.433 100.98 216.097 102.27 216.339 103.941H214.089C213.667 101.684 212.324 100.555 210.058 100.555C208.55 100.555 207.406 101.086 206.625 102.148C205.851 103.203 205.46 104.734 205.453 106.742V108.137C205.453 110.051 205.89 111.574 206.765 112.707C207.64 113.832 208.824 114.395 210.316 114.395C211.16 114.395 211.898 114.301 212.531 114.113C213.164 113.926 213.687 113.609 214.101 113.164V109.332H210.152V107.504H216.339V113.762ZM223.835 116H221.585V98.9375H223.835V116ZM242.405 108.02C242.405 109.691 242.124 111.152 241.561 112.402C240.999 113.645 240.202 114.594 239.171 115.25C238.14 115.906 236.936 116.234 235.561 116.234C234.218 116.234 233.026 115.906 231.987 115.25C230.948 114.586 230.14 113.645 229.561 112.426C228.991 111.199 228.698 109.781 228.682 108.172V106.941C228.682 105.301 228.968 103.852 229.538 102.594C230.108 101.336 230.913 100.375 231.952 99.7109C232.999 99.0391 234.194 98.7031 235.538 98.7031C236.905 98.7031 238.108 99.0352 239.147 99.6992C240.194 100.355 240.999 101.312 241.561 102.57C242.124 103.82 242.405 105.277 242.405 106.941V108.02ZM240.167 106.918C240.167 104.895 239.761 103.344 238.948 102.266C238.136 101.18 236.999 100.637 235.538 100.637C234.116 100.637 232.995 101.18 232.175 102.266C231.362 103.344 230.944 104.844 230.921 106.766V108.02C230.921 109.98 231.331 111.523 232.151 112.648C232.979 113.766 234.116 114.324 235.561 114.324C237.015 114.324 238.14 113.797 238.936 112.742C239.733 111.68 240.143 110.16 240.167 108.184V106.918ZM260.213 116H257.952L249.362 102.852V116H247.1V98.9375H249.362L257.975 112.145V98.9375H260.213V116ZM272.803 116V98.9375H277.619C279.103 98.9375 280.416 99.2656 281.557 99.9219C282.697 100.578 283.576 101.512 284.193 102.723C284.818 103.934 285.135 105.324 285.142 106.895V107.984C285.142 109.594 284.83 111.004 284.205 112.215C283.588 113.426 282.701 114.355 281.545 115.004C280.396 115.652 279.057 115.984 277.525 116H272.803ZM275.053 100.789V114.16H277.42C279.154 114.16 280.502 113.621 281.463 112.543C282.432 111.465 282.916 109.93 282.916 107.938V106.941C282.916 105.004 282.459 103.5 281.545 102.43C280.639 101.352 279.35 100.805 277.678 100.789H275.053ZM292.287 116H290.037V98.9375H292.287V116ZM302.759 108.395C300.829 107.84 299.423 107.16 298.54 106.355C297.665 105.543 297.228 104.543 297.228 103.355C297.228 102.012 297.763 100.902 298.833 100.027C299.911 99.1445 301.31 98.7031 303.029 98.7031C304.2 98.7031 305.243 98.9297 306.158 99.3828C307.079 99.8359 307.79 100.461 308.29 101.258C308.798 102.055 309.052 102.926 309.052 103.871H306.79C306.79 102.84 306.462 102.031 305.806 101.445C305.15 100.852 304.224 100.555 303.029 100.555C301.919 100.555 301.052 100.801 300.427 101.293C299.81 101.777 299.501 102.453 299.501 103.32C299.501 104.016 299.794 104.605 300.38 105.09C300.974 105.566 301.978 106.004 303.392 106.402C304.814 106.801 305.923 107.242 306.72 107.727C307.525 108.203 308.118 108.762 308.501 109.402C308.892 110.043 309.087 110.797 309.087 111.664C309.087 113.047 308.548 114.156 307.47 114.992C306.392 115.82 304.95 116.234 303.146 116.234C301.974 116.234 300.88 116.012 299.865 115.566C298.849 115.113 298.064 114.496 297.509 113.715C296.962 112.934 296.689 112.047 296.689 111.055H298.95C298.95 112.086 299.329 112.902 300.087 113.504C300.853 114.098 301.872 114.395 303.146 114.395C304.333 114.395 305.243 114.152 305.876 113.668C306.509 113.184 306.825 112.523 306.825 111.688C306.825 110.852 306.533 110.207 305.947 109.754C305.361 109.293 304.298 108.84 302.759 108.395ZM325.091 100.789H319.606V116H317.368V100.789H311.895V98.9375H325.091V100.789ZM335.2 109.098H331.192V116H328.93V98.9375H334.579C336.501 98.9375 337.977 99.375 339.008 100.25C340.048 101.125 340.567 102.398 340.567 104.07C340.567 105.133 340.278 106.059 339.7 106.848C339.13 107.637 338.333 108.227 337.309 108.617L341.317 115.859V116H338.903L335.2 109.098ZM331.192 107.258H334.649C335.766 107.258 336.653 106.969 337.309 106.391C337.973 105.812 338.305 105.039 338.305 104.07C338.305 103.016 337.989 102.207 337.356 101.645C336.731 101.082 335.825 100.797 334.637 100.789H331.192V107.258ZM347.465 116H345.215V98.9375H347.465V116ZM352.91 116V98.9375H358.488C360.34 98.9375 361.73 99.3203 362.66 100.086C363.598 100.852 364.066 101.984 364.066 103.484C364.066 104.281 363.84 104.988 363.387 105.605C362.934 106.215 362.316 106.688 361.535 107.023C362.457 107.281 363.184 107.773 363.715 108.5C364.254 109.219 364.523 110.078 364.523 111.078C364.523 112.609 364.027 113.812 363.035 114.688C362.043 115.562 360.641 116 358.828 116H352.91ZM355.16 108.02V114.16H358.875C359.922 114.16 360.746 113.891 361.348 113.352C361.957 112.805 362.262 112.055 362.262 111.102C362.262 109.047 361.145 108.02 358.91 108.02H355.16ZM355.16 106.215H358.559C359.543 106.215 360.328 105.969 360.914 105.477C361.508 104.984 361.805 104.316 361.805 103.473C361.805 102.535 361.531 101.855 360.984 101.434C360.438 101.004 359.605 100.789 358.488 100.789H355.16V106.215ZM381.195 98.9375V110.539C381.187 112.148 380.679 113.465 379.672 114.488C378.672 115.512 377.312 116.086 375.593 116.211L374.996 116.234C373.129 116.234 371.64 115.73 370.531 114.723C369.422 113.715 368.859 112.328 368.843 110.562V98.9375H371.07V110.492C371.07 111.727 371.41 112.688 372.09 113.375C372.769 114.055 373.738 114.395 374.996 114.395C376.269 114.395 377.242 114.055 377.914 113.375C378.593 112.695 378.933 111.738 378.933 110.504V98.9375H381.195ZM397.855 100.789H392.37V116H390.132V100.789H384.66V98.9375H397.855V100.789ZM414.503 108.02C414.503 109.691 414.222 111.152 413.659 112.402C413.097 113.645 412.3 114.594 411.269 115.25C410.237 115.906 409.034 116.234 407.659 116.234C406.315 116.234 405.124 115.906 404.085 115.25C403.046 114.586 402.237 113.645 401.659 112.426C401.089 111.199 400.796 109.781 400.78 108.172V106.941C400.78 105.301 401.065 103.852 401.636 102.594C402.206 101.336 403.011 100.375 404.05 99.7109C405.097 99.0391 406.292 98.7031 407.636 98.7031C409.003 98.7031 410.206 99.0352 411.245 99.6992C412.292 100.355 413.097 101.312 413.659 102.57C414.222 103.82 414.503 105.277 414.503 106.941V108.02ZM412.265 106.918C412.265 104.895 411.858 103.344 411.046 102.266C410.233 101.18 409.097 100.637 407.636 100.637C406.214 100.637 405.093 101.18 404.272 102.266C403.46 103.344 403.042 104.844 403.019 106.766V108.02C403.019 109.98 403.429 111.523 404.249 112.648C405.077 113.766 406.214 114.324 407.659 114.324C409.112 114.324 410.237 113.797 411.034 112.742C411.831 111.68 412.241 110.16 412.265 108.184V106.918ZM425.456 109.098H421.448V116H419.186V98.9375H424.835C426.757 98.9375 428.233 99.375 429.264 100.25C430.303 101.125 430.823 102.398 430.823 104.07C430.823 105.133 430.534 106.059 429.956 106.848C429.385 107.637 428.589 108.227 427.565 108.617L431.573 115.859V116H429.159L425.456 109.098ZM421.448 107.258H424.905C426.022 107.258 426.909 106.969 427.565 106.391C428.229 105.812 428.561 105.039 428.561 104.07C428.561 103.016 428.245 102.207 427.612 101.645C426.987 101.082 426.081 100.797 424.893 100.789H421.448V107.258Z" fill="white"/>
</svg>
