<svg width="164" height="165" viewBox="0 0 164 165" fill="none" xmlns="http://www.w3.org/2000/svg">
<g filter="url(#filter0_f)">
<g filter="url(#filter1_d)">
<path d="M22.5017 85.3173C22.4978 95.8726 25.2484 106.176 30.4766 115.258L22 146.291L53.674 137.964C62.4007 142.736 72.2263 145.25 82.2254 145.254H82.2512C115.18 145.254 141.986 118.385 142 85.3658C142.005 69.3626 135.796 54.3156 124.516 42.9959C113.234 31.6764 98.2333 25.4394 82.2512 25.4323C49.3166 25.4323 22.5148 52.2973 22.5017 85.3173V85.3173Z" fill="black"/>
</g>
<path d="M22.5017 85.3173C22.4978 95.8726 25.2484 106.176 30.4766 115.258L22 146.291L53.674 137.964C62.4007 142.736 72.2263 145.25 82.2254 145.254H82.2512C115.18 145.254 141.986 118.385 142 85.3658C142.005 69.3626 135.796 54.3156 124.516 42.9959C113.234 31.6764 98.2333 25.4394 82.2512 25.4323C49.3166 25.4323 22.5148 52.2973 22.5017 85.3173V85.3173Z" fill="black" fill-opacity="0.2"/>
</g>
<path d="M24.6458 84.6928C24.6428 94.8445 27.2952 104.757 32.3393 113.494L24.1632 143.348L54.7136 135.337C63.1306 139.925 72.6071 142.345 82.2518 142.349H82.2776C114.038 142.349 139.892 116.504 139.905 84.7376C139.911 69.3444 133.922 54.8703 123.041 43.981C112.161 33.0917 97.6916 27.0917 82.2754 27.0848C50.5113 27.0848 24.6587 52.928 24.6458 84.693" fill="url(#paint0_linear)"/>
<path d="M22.5882 84.6732C22.5843 95.1911 25.3325 105.458 30.556 114.509L22.0869 145.432L53.7332 137.134C62.4522 141.889 72.269 144.395 82.2595 144.398H82.2853C115.185 144.398 141.968 117.624 141.982 84.7217C141.987 68.7748 135.783 53.781 124.513 42.501C113.241 31.2215 98.2534 25.0068 82.2853 24.9995C49.3797 24.9995 22.6013 51.7696 22.588 84.6732H22.5882ZM41.4337 112.95L40.2524 111.074C35.2854 103.176 32.6632 94.0493 32.6675 84.6773C32.678 57.3287 54.9351 35.0793 82.3042 35.0793C95.5578 35.0847 108.014 40.2507 117.383 49.6259C126.751 59.0005 131.906 71.4633 131.902 84.7176C131.891 112.067 109.633 134.32 82.2855 134.32H82.2662C73.3613 134.315 64.6285 131.924 57.0121 127.404L55.1994 126.33L36.4199 131.254L41.4337 112.95Z" fill="url(#paint1_linear)"/>
<path fill-rule="evenodd" clip-rule="evenodd" d="M67.3651 59.7274C66.2478 57.2436 65.0716 57.1936 64.0085 57.15C63.1391 57.1129 62.1437 57.1153 61.15 57.1153C60.1557 57.1153 58.5394 57.4888 57.1728 58.9814C55.8054 60.474 51.9517 64.0821 51.9517 71.4208C51.9517 78.7603 57.2971 85.8513 58.0423 86.8474C58.788 87.8421 68.3614 103.383 83.5222 109.362C96.1224 114.331 98.6864 113.342 101.421 113.094C104.156 112.845 110.246 109.486 111.489 106.003C112.732 102.521 112.732 99.5356 112.36 98.9115C111.986 98.2899 110.992 97.917 109.5 97.171C108.008 96.425 100.675 92.816 99.3079 92.3188C97.9404 91.8217 96.9459 91.5731 95.9515 93.0663C94.957 94.5583 92.1004 97.917 91.2297 98.9118C90.3596 99.9085 89.4896 100.033 87.9976 99.2868C86.5059 98.5387 81.7018 96.9651 76.0028 91.8839C71.5685 87.9306 68.5752 83.0481 67.7045 81.5549C66.8345 80.063 67.6116 79.2549 68.3597 78.5113C69.0294 77.8431 69.8516 76.7704 70.5974 75.8992C71.3416 75.0283 71.5904 74.4066 72.0876 73.4121C72.5848 72.416 72.3362 71.5449 71.9633 70.7991C71.5904 70.0532 68.6916 62.6765 67.3651 59.7274" fill="white"/>
<defs>
<filter id="filter0_f" x="18.5863" y="22.0179" width="126.827" height="127.686" filterUnits="userSpaceOnUse" color-interpolation-filters="sRGB">
<feFlood flood-opacity="0" result="BackgroundImageFix"/>
<feBlend mode="normal" in="SourceGraphic" in2="BackgroundImageFix" result="shape"/>
<feGaussianBlur stdDeviation="1.70686" result="effect1_foregroundBlur"/>
</filter>
<filter id="filter1_d" x="0.664278" y="0.682203" width="162.671" height="163.53" filterUnits="userSpaceOnUse" color-interpolation-filters="sRGB">
<feFlood flood-opacity="0" result="BackgroundImageFix"/>
<feColorMatrix in="SourceAlpha" type="matrix" values="0 0 0 0 0 0 0 0 0 0 0 0 0 0 0 0 0 0 127 0"/>
<feOffset dy="-3.41372"/>
<feGaussianBlur stdDeviation="10.6679"/>
<feColorMatrix type="matrix" values="0 0 0 0 0 0 0 0 0 0 0 0 0 0 0 0 0 0 0.21 0"/>
<feBlend mode="normal" in2="BackgroundImageFix" result="effect1_dropShadow"/>
<feBlend mode="normal" in="SourceGraphic" in2="effect1_dropShadow" result="shape"/>
</filter>
<linearGradient id="paint0_linear" x1="82.0337" y1="143.348" x2="82.0337" y2="27.0847" gradientUnits="userSpaceOnUse">
<stop stop-color="#20B038"/>
<stop offset="1" stop-color="#60D66A"/>
</linearGradient>
<linearGradient id="paint1_linear" x1="82.0345" y1="145.432" x2="82.0345" y2="24.9996" gradientUnits="userSpaceOnUse">
<stop stop-color="#F9F9F9"/>
<stop offset="1" stop-color="white"/>
</linearGradient>
</defs>
</svg>
